<?xml version="1.0" encoding="iso-8859-1"?>
<!-- Generator: Adobe Illustrator 19.0.0, SVG Export Plug-In . SVG Version: 6.00 Build 0)  -->
<svg version="1.1" id="Layer_1" xmlns="http://www.w3.org/2000/svg" xmlns:xlink="http://www.w3.org/1999/xlink" x="0px" y="0px"
	 viewBox="0 0 512 512" style="enable-background:new 0 0 512 512;" xml:space="preserve">
<path style="fill:#F37C4A;" d="M510.931,232.671C499.144,102.222,389.52,0,256,0C114.616,0,0,114.616,0,256
	c0,129.194,95.709,236.018,220.09,253.48L510.931,232.671z"/>
<path style="fill:#ED6350;" d="M512,256c0-7.866-0.375-15.644-1.07-23.329L322.783,44.523L155.826,244.87L256,345.043v76.237
	h-77.913l-11.13,35.068l53.133,53.133C231.826,511.128,243.81,512,256,512C397.384,512,512,397.384,512,256z"/>
<polygon style="fill:#414D53;" points="256,411.826 155.826,411.826 155.826,434.087 166.957,434.087 166.957,456.348 
	189.219,456.348 189.219,434.087 244.87,434.087 "/>
<polygon style="fill:#313A3E;" points="356.174,411.826 267.13,411.826 267.13,77.913 244.87,77.913 244.87,434.087 
	311.652,434.087 311.652,456.348 333.913,456.348 333.913,434.087 356.174,434.087 "/>
<polygon style="fill:#FFF296;" points="322.783,44.522 256,44.522 233.739,144.696 256,244.87 356.174,244.87 "/>
<polygon style="fill:#FFFFFF;" points="189.217,44.522 155.826,244.87 256,244.87 256,44.522 "/>
<g>
</g>
<g>
</g>
<g>
</g>
<g>
</g>
<g>
</g>
<g>
</g>
<g>
</g>
<g>
</g>
<g>
</g>
<g>
</g>
<g>
</g>
<g>
</g>
<g>
</g>
<g>
</g>
<g>
</g>
</svg>
